<svg xmlns="http://www.w3.org/2000/svg" viewBox="0 0 1040 652" font-family="Arial, Helvetica, sans-serif" font-size="12">
<defs><marker id="ma" markerWidth="8" markerHeight="8" refX="7" refY="4" orient="auto"><path d="M0,0 L8,4 L0,8 z" fill="#6b7280"/></marker><marker id="mg" markerWidth="8" markerHeight="8" refX="7" refY="4" orient="auto"><path d="M0,0 L8,4 L0,8 z" fill="#16a34a"/></marker><marker id="mr" markerWidth="8" markerHeight="8" refX="7" refY="4" orient="auto"><path d="M0,0 L8,4 L0,8 z" fill="#dc2626"/></marker><marker id="mo" markerWidth="8" markerHeight="8" refX="7" refY="4" orient="auto"><path d="M0,0 L8,4 L0,8 z" fill="#d97706"/></marker></defs>
<rect width="100%" height="100%" fill="#ffffff"/>
<text x="20" y="24" text-anchor="start" font-size="13" font-weight="bold" fill="#1f2937">Путь одной задачи с отправкой: от claim до agent_finish</text><line x1="90" y1="84" x2="90" y2="644" stroke="#9ca3af" stroke-dasharray="3 4"/><line x1="260" y1="84" x2="260" y2="644" stroke="#9ca3af" stroke-dasharray="3 4"/><line x1="440" y1="84" x2="440" y2="644" stroke="#9ca3af" stroke-dasharray="3 4"/><line x1="620" y1="84" x2="620" y2="644" stroke="#9ca3af" stroke-dasharray="3 4"/><line x1="800" y1="84" x2="800" y2="644" stroke="#9ca3af" stroke-dasharray="3 4"/><line x1="960" y1="84" x2="960" y2="644" stroke="#9ca3af" stroke-dasharray="3 4"/><rect x="28" y="44" width="124" height="40" rx="4" fill="#ffffff" stroke="#9ca3af"/><text x="90" y="68" text-anchor="middle" font-size="12" fill="#1f2937">Демон</text><rect x="198" y="44" width="124" height="40" rx="4" fill="#ffffff" stroke="#9ca3af"/><text x="260" y="60.5" text-anchor="middle" font-size="12" fill="#1f2937">TaskFlow</text><text x="260" y="75.5" text-anchor="middle" font-size="12" fill="#1f2937">(MCP)</text><rect x="378" y="44" width="124" height="40" rx="4" fill="#ffffff" stroke="#9ca3af"/><text x="440" y="60.5" text-anchor="middle" font-size="12" fill="#1f2937">claude</text><text x="440" y="75.5" text-anchor="middle" font-size="12" fill="#1f2937">(агент, субагенты)</text><rect x="558" y="44" width="124" height="40" rx="4" fill="#e3f2e7" stroke="#16a34a"/><text x="620" y="60.5" text-anchor="middle" font-size="12" fill="#1f2937">send-gate</text><text x="620" y="75.5" text-anchor="middle" font-size="12" fill="#1f2937">(хуки)</text><rect x="738" y="44" width="124" height="40" rx="4" fill="#ffffff" stroke="#9ca3af"/><text x="800" y="60.5" text-anchor="middle" font-size="12" fill="#1f2937">MCP-сервер</text><text x="800" y="75.5" text-anchor="middle" font-size="12" fill="#1f2937">(VK, GitLab…)</text><rect x="898" y="44" width="124" height="40" rx="4" fill="#e3f2e7" stroke="#16a34a"/><text x="960" y="68" text-anchor="middle" font-size="12" fill="#1f2937">runs/&lt;id&gt;/</text><line x1="16" y1="104" x2="1024" y2="104" stroke="#9ca3af" stroke-dasharray="2 4"/><text x="20" y="118" text-anchor="start" font-size="11" font-weight="bold" fill="#6b7280">Подготовка</text>
<line x1="92" y1="138" x2="258" y2="138" stroke="#6b7280" marker-end="url(#ma)"/><text x="175" y="132" text-anchor="middle" font-size="11" fill="#6b7280">queue, claim</text>
<line x1="258" y1="170" x2="92" y2="170" stroke="#6b7280" stroke-dasharray="4 3" marker-end="url(#ma)"/><text x="175" y="164" text-anchor="middle" font-size="11" fill="#6b7280">task + journals</text>
<line x1="92" y1="202" x2="958" y2="202" stroke="#16a34a" marker-end="url(#mg)"/><text x="525" y="196" text-anchor="middle" font-size="11" fill="#16a34a">meta.json, slots/</text>
<line x1="92" y1="234" x2="438" y2="234" stroke="#16a34a" marker-end="url(#mg)"/><text x="265" y="228" text-anchor="middle" font-size="11" fill="#16a34a">spawn: --settings (gate), промпт, previous_attempts</text>
<line x1="16" y1="258" x2="1024" y2="258" stroke="#9ca3af" stroke-dasharray="2 4"/><text x="20" y="272" text-anchor="start" font-size="11" font-weight="bold" fill="#6b7280">Каждый send-вызов</text>
<line x1="442" y1="292" x2="618" y2="292" stroke="#16a34a" marker-end="url(#mg)"/><text x="530" y="286" text-anchor="middle" font-size="11" fill="#16a34a">PreToolUse</text>
<line x1="622" y1="324" x2="958" y2="324" stroke="#16a34a" marker-end="url(#mg)"/><text x="790" y="318" text-anchor="middle" font-size="11" fill="#16a34a">слот, attempt</text>
<line x1="618" y1="356" x2="442" y2="356" stroke="#16a34a" stroke-dasharray="4 3" marker-end="url(#mg)"/><text x="530" y="350" text-anchor="middle" font-size="11" fill="#16a34a">allow или deny</text>
<line x1="442" y1="388" x2="798" y2="388" stroke="#6b7280" marker-end="url(#ma)"/><text x="620" y="382" text-anchor="middle" font-size="11" fill="#6b7280">вызов инструмента</text>
<line x1="798" y1="420" x2="442" y2="420" stroke="#6b7280" stroke-dasharray="4 3" marker-end="url(#ma)"/><text x="620" y="414" text-anchor="middle" font-size="11" fill="#6b7280">ответ</text>
<line x1="442" y1="452" x2="618" y2="452" stroke="#16a34a" marker-end="url(#mg)"/><text x="530" y="446" text-anchor="middle" font-size="11" fill="#16a34a">PostToolUse</text>
<line x1="622" y1="484" x2="958" y2="484" stroke="#16a34a" marker-end="url(#mg)"/><text x="790" y="478" text-anchor="middle" font-size="11" fill="#16a34a">ok + ссылка</text>
<line x1="16" y1="508" x2="1024" y2="508" stroke="#9ca3af" stroke-dasharray="2 4"/><text x="20" y="522" text-anchor="start" font-size="11" font-weight="bold" fill="#6b7280">Завершение</text>
<line x1="438" y1="542" x2="92" y2="542" stroke="#6b7280" stroke-dasharray="4 3" marker-end="url(#ma)"/><text x="265" y="536" text-anchor="middle" font-size="11" fill="#6b7280">JSON: status, text</text>
<line x1="92" y1="574" x2="958" y2="574" stroke="#16a34a" marker-end="url(#mg)"/><text x="525" y="568" text-anchor="middle" font-size="11" fill="#16a34a">читает audit.jsonl</text>
<line x1="92" y1="606" x2="258" y2="606" stroke="#16a34a" marker-end="url(#mg)"/><text x="175" y="600" text-anchor="middle" font-size="11" fill="#16a34a">finish + journal</text>
</svg>
